<svg width="1361" height="1498" viewBox="0 0 1361 1498" fill="none" xmlns="http://www.w3.org/2000/svg">
<g clip-path="url(#clip0_1_34)">
<g clip-path="url(#clip1_1_34)">
<g clip-path="url(#clip2_1_34)">
<path d="M89.1498 966.895L104.997 986.706L97.0733 960.949C95.0914 949.062 81.2262 962.931 89.1498 966.895ZM106.979 955.008C112.92 964.913 118.866 974.819 118.866 984.724C118.866 998.594 130.754 1004.54 140.655 1008.49C126.786 992.648 118.862 949.062 106.979 955.008ZM867.71 115.032C901.386 115.032 933.085 111.069 968.747 118.992C1055.91 140.785 1129.21 184.367 1178.74 245.782L1317.42 467.663C1323.36 523.133 1335.25 584.548 1333.27 651.904C1347.13 651.904 1345.15 632.093 1361 628.129C1345.15 667.752 1337.23 717.279 1333.27 774.73C1323.36 743.032 1333.27 695.486 1335.25 669.734C1321.38 691.527 1313.45 675.675 1313.45 665.77C1315.44 649.922 1307.51 651.9 1301.57 645.959C1279.77 626.148 1265.91 604.355 1250.06 570.678C1259.97 544.926 1261.95 507.285 1230.25 487.474C1220.34 481.533 1208.46 471.627 1202.52 455.776C1194.59 433.983 1180.72 408.23 1184.68 374.554C1186.66 364.648 1154.97 396.347 1137.14 382.477C1059.87 328.99 982.612 267.575 889.503 216.065C839.975 216.065 804.317 198.236 786.488 176.443C770.641 156.632 782.524 130.88 806.299 128.898C820.168 128.898 836.016 124.934 847.903 132.862C849.885 124.938 857.809 115.032 867.71 115.032ZM671.586 69.4644L675.549 71.4464C695.36 75.4103 705.266 103.145 727.055 93.2394C727.055 107.109 729.037 120.974 725.073 130.88C719.131 146.727 701.298 146.727 687.433 146.727C554.701 138.803 477.439 194.272 396.217 241.818C374.424 255.688 350.653 265.593 332.82 283.422C247.634 362.666 154.525 435.965 132.732 582.566L114.902 745.014C112.92 762.843 93.1094 780.672 97.0733 802.465L110.939 899.538C97.0691 885.669 89.1455 903.502 93.1094 911.426C95.0914 917.367 103.015 937.179 114.902 919.349C130.75 949.066 146.601 1006.52 168.39 1032.27C235.746 1111.51 322.914 1182.83 394.235 1254.15C412.064 1250.19 425.933 1250.19 429.893 1238.3C435.835 1250.19 423.952 1262.07 414.046 1264.06C445.745 1283.87 481.403 1301.7 528.948 1305.66C590.364 1309.62 647.815 1319.53 701.302 1333.4C729.037 1325.47 756.771 1321.51 786.488 1319.53C796.393 1319.53 802.335 1303.68 814.223 1299.71L816.204 1279.9C828.092 1297.73 826.11 1273.96 818.186 1262.07C832.056 1273.96 836.016 1283.87 841.957 1291.79C841.957 1285.85 857.804 1264.06 857.809 1289.81L861.768 1264.06C867.71 1260.09 869.692 1285.85 875.638 1268.02C881.579 1250.19 893.467 1264.05 905.354 1258.11C901.39 1266.03 903.372 1281.89 917.237 1271.98L933.089 1258.11C942.994 1281.89 958.842 1271.98 966.765 1268.02C1053.93 1212.55 1141.1 1147.17 1224.3 1081.8L1222.32 1107.55L1232.23 1075.85C1242.13 1085.76 1250.06 1077.83 1254.02 1071.89C1265.91 1052.08 1281.76 1032.27 1307.51 1014.44C1275.81 1099.63 1238.17 1166.98 1190.63 1222.45L1170.82 1246.23C1170.82 1260.1 1166.85 1277.93 1151.01 1279.9C1143.08 1281.89 1127.23 1275.94 1115.35 1287.83C1109.41 1295.75 1129.22 1311.6 1113.37 1299.71C1099.5 1289.81 1085.63 1299.71 1069.78 1303.68C1057.89 1307.64 1077.7 1319.53 1081.67 1327.45C1085.63 1335.37 1089.59 1343.3 1087.61 1353.21L1065.82 1329.43C1040.07 1343.3 1024.22 1369.05 1002.42 1388.86C992.518 1396.79 996.482 1410.66 996.482 1422.54C982.612 1422.54 966.765 1418.58 958.842 1426.5C952.9 1434.43 954.878 1446.32 954.878 1458.2C935.067 1456.22 933.085 1426.5 915.26 1432.45C897.431 1436.41 877.62 1438.39 861.768 1448.3C873.656 1472.07 841.957 1458.2 845.921 1462.16C816.204 1444.33 790.452 1430.46 758.753 1442.35C691.397 1420.56 608.193 1430.46 546.778 1438.39C546.778 1428.49 548.759 1418.58 544.796 1416.6C540.832 1426.5 528.948 1422.54 530.93 1422.54C493.29 1396.79 455.65 1380.94 416.028 1359.15C380.37 1363.11 346.689 1345.28 336.784 1335.37C309.049 1309.62 277.351 1323.49 251.598 1317.54C196.129 1303.67 176.318 1246.22 170.372 1206.61C166.408 1186.79 150.561 1178.87 144.619 1180.85C118.866 1097.64 79.2442 1022.36 47.5457 945.102C39.6221 925.291 41.6041 905.48 41.6041 883.687C51.5096 887.651 61.4151 885.669 59.4332 871.804C49.5276 806.429 25.7569 756.901 0 709.356C13.8694 641.999 15.8471 562.755 47.5457 503.321C75.2803 449.834 126.79 422.095 162.448 376.532C174.336 360.684 174.336 338.891 186.223 325.026C225.845 285.404 265.467 243.8 309.049 208.142C328.86 192.295 352.631 208.142 382.347 202.2C392.253 166.542 431.875 134.843 469.515 144.749C485.362 148.713 517.061 107.109 526.966 103.145C542.814 97.2033 534.89 118.992 534.89 132.862C572.53 103.145 624.04 87.2978 671.586 69.4644Z" fill="#7A3EDD"/>
<g clip-path="url(#clip3_1_34)">
<g clip-path="url(#clip4_1_34)">
<g clip-path="url(#clip5_1_34)">
<g clip-path="url(#clip6_1_34)">
<g clip-path="url(#clip7_1_34)">
<g clip-path="url(#clip8_1_34)">
<g clip-path="url(#clip9_1_34)">
<path d="M530.526 742.608L589.326 679.844L565.542 594.616L468.422 577.438L400.372 588.009L411.603 734.68L530.526 742.608ZM681.821 870.78L723.444 914.385L641.52 987.721L589.987 979.132L554.971 823.872L492.867 778.285L406.979 790.838L408.961 954.687L450.583 968.561L455.869 993.667L313.823 991.685L312.501 973.846L351.482 958.651L343.553 609.151L319.769 583.385L272.2 578.099L274.182 542.422L328.358 541.101L356.106 552.333L372.623 537.798L552.328 540.44L635.574 617.079L623.682 727.413L566.202 771.018L615.093 817.926L619.717 936.848L634.252 942.134L681.821 870.78ZM831.135 542.422L993.662 530.53L1035.28 558.939L1053.78 533.173L1088.8 560.921L1026.7 635.578L1001.59 612.454L969.878 571.492L870.776 587.349L818.582 640.203L858.883 714.86L1030 759.786L1070.3 809.337L1058.41 938.17L921.648 1001.59L800.744 968.561L780.263 1001.59L739.961 992.345L780.263 903.814L813.957 913.724L918.345 947.419L1021.41 906.457L1001.59 804.052L798.762 762.429L761.103 624.347L831.135 542.422Z" fill="#7A3EDD"/>
</g>
</g>
</g>
</g>
</g>
</g>
</g>
</g>
</g>
</g>
<defs>
<clipPath id="clip0_1_34">
<rect width="1361" height="1531.12" fill="white" transform="translate(0 0.500008)"/>
</clipPath>
<clipPath id="clip1_1_34">
<rect width="1361" height="1531.12" fill="white" transform="translate(0 0.500008)"/>
</clipPath>
<clipPath id="clip2_1_34">
<rect width="1361" height="1531.12" fill="white" transform="translate(0 0.500008)"/>
</clipPath>
<clipPath id="clip3_1_34">
<rect width="816.6" height="471.065" fill="white" transform="translate(272.2 530.53)"/>
</clipPath>
<clipPath id="clip4_1_34">
<rect width="816.6" height="471.065" fill="white" transform="translate(272.2 530.53)"/>
</clipPath>
<clipPath id="clip5_1_34">
<rect width="816.6" height="471.065" fill="white" transform="translate(272.2 530.53)"/>
</clipPath>
<clipPath id="clip6_1_34">
<rect width="816.6" height="471.065" fill="white" transform="translate(272.2 530.53)"/>
</clipPath>
<clipPath id="clip7_1_34">
<rect width="816.6" height="471.065" fill="white" transform="translate(272.2 530.53)"/>
</clipPath>
<clipPath id="clip8_1_34">
<rect width="816.6" height="471.065" fill="white" transform="translate(272.2 530.53)"/>
</clipPath>
<clipPath id="clip9_1_34">
<rect width="816.6" height="471.065" fill="white" transform="translate(272.2 530.53)"/>
</clipPath>
</defs>
</svg>
